<?xml version="1.0" encoding="UTF-8"?>
<svg width="18px" height="18px" viewBox="0 0 18 18" version="1.1" xmlns="http://www.w3.org/2000/svg" xmlns:xlink="http://www.w3.org/1999/xlink">
    <title>编组 2@2x</title>
    <g id="页面-1" stroke="none" stroke-width="1" fill="none" fill-rule="evenodd">
        <g id="编组-2" transform="translate(0.559688, 0.399444)" fill="#666666" fill-rule="nonzero">
            <polygon id="路径-2备份" transform="translate(2.500000, 2.500000) scale(-1, -1) translate(-2.500000, -2.500000) " points="5 0 5 2 2 2 2 5 0 5 0 0"></polygon>
            <polygon id="路径-2备份-2" transform="translate(14.500000, 2.500000) scale(1, -1) translate(-14.500000, -2.500000) " points="17 5.68434189e-14 17 2 13.999 2 14 5 12 5 12 5.68434189e-14"></polygon>
            <polygon id="路径-2备份-3" transform="translate(2.500000, 14.500000) scale(-1, 1) translate(-2.500000, -14.500000) " points="5 12 5 14 1.999 14 2 17 2.84217094e-14 17 2.84217094e-14 12"></polygon>
            <polygon id="路径-2备份-4" points="17 12 17 14 13.999 14 14 17 12 17 12 12"></polygon>
        </g>
    </g>
</svg>