<?xml version="1.0" encoding="UTF-8"?>
<svg width="18px" height="22px" viewBox="0 0 18 22" version="1.1" xmlns="http://www.w3.org/2000/svg" xmlns:xlink="http://www.w3.org/1999/xlink">
    <title>Group 3</title>
    <g id="Page-1" stroke="none" stroke-width="1" fill="none" fill-rule="evenodd">
        <g id="Group-3" fill="#666666" fill-rule="nonzero">
            <path d="M16,8 L2,8 C0.8954305,8 0,8.8954305 0,10 L0,20 C0,21.1045695 0.8954305,22 2,22 L16,22 C17.1045695,22 18,21.1045695 18,20 L18,10 C18,8.8954305 17.1045695,8 16,8 Z M2,10 L16,10 L16,20 L2,20 L2,10 Z" id="Rectangle-Copy"></path>
            <path d="M9,0 C11.7657189,0 13.8858689,1.96059243 13.9955404,4.77034346 L14,5 L14,9 C14,9.55228475 13.5522847,10 13,10 C12.4871642,10 12.0644928,9.61395981 12.0067277,9.11662113 L12,9 L12,5 C12,3.19241301 10.754811,2 9,2 C7.30786078,2 6.0895921,3.10876159 6.00473125,4.80871024 L6,5 L6,9 C6,9.55228475 5.55228475,10 5,10 C4.48716416,10 4.06449284,9.61395981 4.00672773,9.11662113 L4,9 L4,5 C4,2.06800254 6.15953189,0 9,0 Z" id="Path-Copy"></path>
            <path d="M9,14 C9.51283584,14 9.93550716,14.3860402 9.99327227,14.8833789 L10,15 L10,16 C10,16.5522847 9.55228475,17 9,17 C8.48716416,17 8.06449284,16.6139598 8.00672773,16.1166211 L8,16 L8,15 C8,14.4477153 8.44771525,14 9,14 Z" id="Path-Copy-2"></path>
        </g>
    </g>
</svg>