<?xml version="1.0" encoding="UTF-8"?>
<svg width="23px" height="23px" viewBox="0 0 23 23" version="1.1" xmlns="http://www.w3.org/2000/svg" xmlns:xlink="http://www.w3.org/1999/xlink">
    <title>编组 4@2x</title>
    <g id="页面-1" stroke="none" stroke-width="1" fill="none" fill-rule="evenodd">
        <g id="编组-4" transform="translate(0.000000, 0.500000)" fill="#666666" fill-rule="nonzero">
            <path d="M10,2.84217094e-14 C15.5228475,2.84217094e-14 20,4.4771525 20,10 C20,15.5228475 15.5228475,20 10,20 C4.4771525,20 0,15.5228475 0,10 C0,4.4771525 4.4771525,2.84217094e-14 10,2.84217094e-14 Z M10,2 C5.581722,2 2,5.581722 2,10 C2,14.418278 5.581722,18 10,18 C14.418278,18 18,14.418278 18,10 C18,5.581722 14.418278,2 10,2 Z" id="椭圆形"></path>
            <polygon id="路径" transform="translate(18.732233, 18.329497) rotate(-45.000000) translate(-18.732233, -18.329497) " points="19.732233 14.086856 19.732233 22.5721374 17.732233 22.5721374 17.732233 14.086856"></polygon>
        </g>
    </g>
</svg>