<?xml version="1.0" encoding="UTF-8"?>
<svg width="27px" height="26px" viewBox="0 0 27 26" version="1.1" xmlns="http://www.w3.org/2000/svg" xmlns:xlink="http://www.w3.org/1999/xlink">
    <title>编组@2x</title>
    <g id="页面-1" stroke="none" stroke-width="1" fill="none" fill-rule="evenodd">
        <g id="编组" transform="translate(0.539845, 0.264719)" fill="#666666" fill-rule="nonzero">
            <path d="M14.9941649,3.17830086 C15.5464496,3.17830086 15.9941649,3.62601611 15.9941649,4.17830086 L15.9937182,8.51630086 L20.3477182,8.51713562 C20.900003,8.51713562 21.3477182,8.96485087 21.3477182,9.51713562 L21.3477182,21.5171356 C21.3477182,22.0694204 20.900003,22.5171356 20.3477182,22.5171356 L5.34771824,22.5171356 C4.79543349,22.5171356 4.34771824,22.0694204 4.34771824,21.5171356 L4.34771824,9.51713562 C4.34771824,8.96485087 4.79543349,8.51713562 5.34771824,8.51713562 L8.99371824,8.51630086 L8.99416485,4.17830086 C8.99416485,3.62601611 9.4418801,3.17830086 9.99416485,3.17830086 L14.9941649,3.17830086 Z M13.994,5.178 L10.994,5.178 L10.9937182,8.51650676 C10.9936097,9.57062111 10.1780116,10.4342314 9.14340286,10.5107834 L8.99417615,10.5163008 L6.347,10.517 L6.347,20.517 L19.347,20.517 L19.347,10.517 L15.9933348,10.5163008 C14.9390392,10.5160987 14.0754215,9.7001539 13.999188,8.66534867 L13.9937183,8.51609495 L13.994,5.178 Z" id="形状结合" transform="translate(12.847718, 12.847718) rotate(45.000000) translate(-12.847718, -12.847718) "></path>
            <polygon id="路径-3" points="7.35476415 8.4171822 17.6566696 18.4171822 16.2636406 19.8522676 5.96173509 9.85226757"></polygon>
        </g>
    </g>
</svg>